<svg width="25" height="24" viewBox="0 0 25 24" fill="none" xmlns="http://www.w3.org/2000/svg">
<path fill-rule="evenodd" clip-rule="evenodd" d="M12.3333 20.9375C7.40525 20.9375 3.39575 16.928 3.39575 12C3.39575 7.072 7.40525 3.0625 12.3333 3.0625C17.2613 3.0625 21.2708 7.072 21.2708 12C21.2708 16.928 17.2613 20.9375 12.3333 20.9375ZM12.3333 1C6.2585 1 1.33325 5.92525 1.33325 12C1.33325 18.0748 6.2585 23 12.3333 23C18.408 23 23.3333 18.0748 23.3333 12C23.3333 5.92525 18.408 1 12.3333 1ZM16.417 6.45875L12.3333 10.5411L8.2495 6.45875L6.792 7.91625L10.8744 12L6.792 16.0838L8.2495 17.5413L12.3333 13.4589L16.417 17.5413L17.8745 16.0838L13.7921 12L17.8745 7.91625L16.417 6.45875Z" fill="black"/>
<path fill-rule="evenodd" clip-rule="evenodd" d="M12.3333 20.9375C7.40525 20.9375 3.39575 16.928 3.39575 12C3.39575 7.072 7.40525 3.0625 12.3333 3.0625C17.2613 3.0625 21.2708 7.072 21.2708 12C21.2708 16.928 17.2613 20.9375 12.3333 20.9375ZM12.3333 1C6.2585 1 1.33325 5.92525 1.33325 12C1.33325 18.0748 6.2585 23 12.3333 23C18.408 23 23.3333 18.0748 23.3333 12C23.3333 5.92525 18.408 1 12.3333 1ZM16.417 6.45875L12.3333 10.5411L8.2495 6.45875L6.792 7.91625L10.8744 12L6.792 16.0838L8.2495 17.5413L12.3333 13.4589L16.417 17.5413L17.8745 16.0838L13.7921 12L17.8745 7.91625L16.417 6.45875Z" fill="black"/>
</svg>
