<svg version="1.2" baseProfile="tiny" viewBox="0 0 32 32" xmlns:xlink="http://www.w3.org/1999/xlink" xmlns="http://www.w3.org/2000/svg">
<path style="fill:#ffffff;" d="M0,18.828V13.163C0,12.844,0.227,12.569,0.54,12.509L4.466,11.93C4.61,11.525,4.779,11.12,4.972,10.719L2.588,7.54299C2.409,7.28099,2.443,6.92498,2.669,6.69899L6.675,2.69399C6.901,2.46799,7.255,2.43499,7.52,2.61299L10.719,4.97399C11.119,4.78099,11.523,4.61099,11.927,4.46799L12.505,0.525985C12.565,0.211985,12.84,-0.0150146,13.159,-0.0150146H18.824C19.143,-0.0150146,19.418,0.211985,19.478,0.525985L20.056,4.46799C20.46,4.61199,20.863,4.78099,21.263,4.97399L24.451,2.60099C24.716,2.42199,25.07,2.45599,25.296,2.68199L29.301,6.68799C29.527,6.91299,29.561,7.26899,29.382,7.53199L27.009,10.72C27.202,11.119,27.37,11.523,27.514,11.927L31.459,12.505C31.773,12.566,31.999,12.84,31.999,13.159V18.824C31.999,19.143,31.772,19.418,31.458,19.478L27.513,20.057C27.369,20.461,27.2,20.865,27.007,21.264L29.36,24.47C29.538,24.734,29.506,25.09,29.279,25.315L25.273,29.32C25.047,29.546,24.693,29.579,24.428,29.401L21.259,27.009C20.863,27.2,20.461,27.367,20.056,27.511L19.473,31.471C19.413,31.785,19.138,32.012,18.819,32.012H13.154C12.835,32.012,12.56,31.785,12.5,31.471L11.919,27.511C11.514,27.368,11.112,27.199,10.715,27.008L7.52,29.373C7.255,29.552,6.901,29.518,6.675,29.292L2.67,25.286C2.444,25.061,2.411,24.705,2.589,24.441L4.972,21.264C4.779,20.864,4.61,20.459,4.466,20.053L0.541,19.482C0.227,19.422,0,19.147,0,18.828ZM1.333,13.713V18.278L5.015,18.802C5.284,18.819,5.522,18.996,5.606,19.262C5.793,19.856,6.043,20.453,6.349,21.037C6.499,21.32,6.424,21.671,6.171,21.871L4.001,24.733L7.228,27.961L10.159,25.778C10.36,25.56,10.676,25.492,10.943,25.632C11.554,25.952,12.184,26.212,12.814,26.404C13.13,26.5,13.331,26.821,13.279,27.14C13.271,27.195,13.256,27.248,13.236,27.297L13.706,30.68H18.271L18.742,27.297C18.722,27.248,18.707,27.195,18.699,27.14C18.649,26.821,18.847,26.5,19.164,26.404C19.795,26.212,20.424,25.953,21.035,25.633C21.321,25.483,21.672,25.559,21.869,25.813L24.721,27.991L27.949,24.763L25.775,21.822C25.558,21.62,25.49,21.307,25.631,21.038C25.947,20.435,26.203,19.82,26.392,19.21C26.49,18.895,26.803,18.699,27.128,18.748C27.152,18.751,27.175,18.756,27.198,18.762L30.667,18.275V13.71L27.112,13.208C26.792,13.249,26.488,13.086,26.392,12.777C26.204,12.167,25.948,11.552,25.632,10.949C25.482,10.663,25.558,10.312,25.812,10.114L27.971,7.24299L24.744,4.01499L21.82,6.20799C21.619,6.42499,21.304,6.49299,21.036,6.35199C20.434,6.03599,19.821,5.78099,19.215,5.59299C18.9,5.49499,18.71,5.17199,18.754,4.85699C18.757,4.83998,18.76,4.82299,18.764,4.80799L18.273,1.31999H13.708L13.202,4.88899C13.231,5.20798,13.07,5.49899,12.765,5.59399C12.159,5.78199,11.547,6.03699,10.944,6.35299C10.658,6.50299,10.308,6.42699,10.111,6.17499L7.228,4.02499L4,7.25299L6.204,10.163C6.422,10.363,6.489,10.678,6.349,10.947C6.043,11.531,5.793,12.128,5.606,12.722C5.519,12.998,5.266,13.182,4.985,13.188L1.333,13.713Z M11.335,20.665C8.76301,18.093,8.76301,13.908,11.335,11.336C13.907,8.76398,18.092,8.76398,20.664,11.336C23.236,13.908,23.236,18.093,20.664,20.665C18.092,23.237,13.907,23.237,11.335,20.665ZM19.545,12.455C17.59,10.5,14.409,10.5,12.455,12.455C10.501,14.41,10.5,17.591,12.455,19.545C14.41,21.499,17.591,21.5,19.545,19.545C21.499,17.59,21.5,14.41,19.545,12.455Z"/>
</svg>