<svg version="1.2" baseProfile="tiny" viewBox="0 0 3.791 18.000" xmlns:xlink="http://www.w3.org/1999/xlink" xmlns="http://www.w3.org/2000/svg">
<path style="fill:#ffffff;" d="M3.623,16.299c0,0.939-0.76,1.701-1.699,1.701c-0.938,0-1.7-0.762-1.7-1.701   c0-0.938,0.761-1.698,1.7-1.698C2.863,14.601,3.623,15.362,3.623,16.299z M0,1.854c0,1.383,0.749,9.033,0.749,9.033   c0.063,1.048,0.523,1.808,1.173,1.85c0.648-0.042,1.069-0.833,1.176-1.85c0,0,0.701-7.65,0.692-9.001C3.791,1.01,3.138,0,1.896,0   C0.71,0,0,1.018,0,1.854z"/>
</svg>