<svg version="1.2" baseProfile="tiny" viewBox="0 0 45.500 40.000" xmlns:xlink="http://www.w3.org/1999/xlink" xmlns="http://www.w3.org/2000/svg">
<path style="fill:#ffffff;" d="M44.089,37.135L23.729,1.688c-0.185-0.32-0.524-0.518-0.894-0.519c-0.001,0-0.002,0-0.003,0    c-0.368,0-0.709,0.196-0.893,0.515L1.309,37.279c-0.186,0.32-0.186,0.714-0.001,1.034c0.185,0.319,0.525,0.517,0.895,0.517h41.076    c0.007,0,0.014,0,0.018,0c0.57,0,1.034-0.462,1.034-1.032C44.33,37.545,44.239,37.315,44.089,37.135z M3.995,36.766L22.829,4.27    l18.665,32.497H3.995z M25.128,32.478c0,1.236-0.998,2.238-2.233,2.238s-2.237-1.002-2.237-2.238c0-1.234,1.001-2.236,2.237-2.236    S25.128,31.244,25.128,32.478z M20.362,13.471c0,1.819,0.986,11.887,0.986,11.887c0.083,1.378,0.688,2.38,1.544,2.431    c0.853-0.051,1.407-1.094,1.547-2.431c0,0,0.924-10.068,0.914-11.845c0-1.152-0.86-2.481-2.495-2.481    C21.298,11.032,20.362,12.371,20.362,13.471z"/>
</svg>