<?xml version="1.0" encoding="UTF-8"?>
<svg id="Layer_1" data-name="Layer 1" xmlns="http://www.w3.org/2000/svg" viewBox="0 0 802.444 187">
  <defs>
    <style>
      .cls-1 {
        fill: #fff;
      }
    </style>
  </defs>
  <rect class="cls-1" x="259.636" y="0" width="2" height="187"/>
  <path class="cls-1" d="M172.245,128.755c-5.219,3.964-10.714,7.573-16.443,10.818-21.182,12-45.635,18.88-71.703,18.88-17.87,0-34.979-3.229-50.802-9.12.62,6.182,1.661,12.234,3.026,18.161,15.781,12.214,35.557,19.5,57.042,19.5,23.385,0,44.75-8.63,61.13-22.859,7.12-6.188,13.302-13.427,18.292-21.49,4.365-7.063,7.807-14.75,10.182-22.896-3.427,3.167-7.01,6.172-10.729,9l.005.005h0Z"/>
  <path class="cls-1" d="M77.886,14.656c-5.964-3.151-12.167-5.901-18.583-8.208C24.589,20.078,0,53.901,0,93.5c0,9.339,1.385,18.349,3.927,26.859,2,6.677,4.724,13.036,8.078,18.995,3.583,6.354,7.875,12.255,12.786,17.578-.745-3.917-1.354-7.88-1.776-11.901-.495-4.656-.755-9.38-.802-14.156-.005-.474-.036-.948-.036-1.427,0-46.583,21.802-88.042,55.708-114.792h0Z"/>
  <path class="cls-1" d="M115.584,2.682c-5.057-1.24-10.281-2.052-15.625-2.427-2.182-.151-4.375-.255-6.594-.255-7.312,0-14.422.87-21.255,2.458,5.01,1.635,9.891,3.536,14.646,5.682,3.516,1.583,6.964,3.281,10.328,5.13,38.51,21.193,66.411,59.286,73.781,104.307,5.333-3.865,10.391-8.083,15.146-12.62.458-3.76.724-7.578.724-11.464,0-43.969-30.313-80.828-71.151-90.813,0,0,0,.002,0,.002Z"/>
  <path class="cls-1" d="M43.907,69.583h14.578v53.771h-14.578v-53.771Z"/>
  <path class="cls-1" d="M101.438,107.026c0,3.333-.844,6.292-2.536,8.88-1.688,2.589-4.125,4.599-7.307,6.031s-6.917,2.151-11.203,2.151c-3.573,0-6.573-.25-8.995-.755-2.422-.5-4.948-1.38-7.563-2.63v-12.943c2.766,1.422,5.641,2.531,8.63,3.328,2.984.792,5.729,1.193,8.224,1.193,2.156,0,3.734-.375,4.74-1.12,1.005-.75,1.505-1.714,1.505-2.885,0-.74-.203-1.38-.604-1.932s-1.052-1.109-1.948-1.677c-.891-.563-3.276-1.714-7.141-3.453-3.5-1.594-6.125-3.141-7.88-4.635-1.75-1.495-3.047-3.214-3.891-5.146-.844-1.938-1.266-4.234-1.266-6.88,0-4.948,1.797-8.813,5.396-11.583,3.604-2.771,8.547-4.156,14.839-4.156,5.557,0,11.224,1.286,17.005,3.859l-4.443,11.219c-5.021-2.307-9.354-3.458-13-3.458-1.885,0-3.255.333-4.115.995s-1.286,1.484-1.286,2.464c0,1.052.542,2,1.635,2.833,1.089.828,4.042,2.349,8.87,4.557,4.625,2.083,7.839,4.323,9.641,6.714,1.797,2.391,2.698,5.401,2.698,9.031h-.005s0-.002,0-.002Z"/>
  <path class="cls-1" d="M140.797,123.354l-2.646-10.078h-17.443l-2.719,10.078h-15.943l17.521-53.99h19.354l17.74,53.99h-15.865,0ZM135.141,101.359l-2.313-8.823c-.536-1.964-1.193-4.5-1.964-7.615s-1.281-5.349-1.526-6.698c-.219,1.25-.656,3.313-1.302,6.182-.651,2.87-2.089,8.516-4.318,16.953h11.423Z"/>
  <path class="cls-1" d="M161.98,177.932h-1.964v-7.635h-2.516v-1.635h6.99v1.635h-2.51v7.635Z"/>
  <path class="cls-1" d="M169.511,177.932l-2.224-7.276h-.057c.005.172.021.438.042.786s.036.719.052,1.115c.016.391.026.745.026,1.063v4.313h-1.755v-9.271h2.672l2.193,7.089h.042l2.323-7.089h2.672v9.271h-1.833v-4.385c0-.292.005-.63.016-1.01s.026-.745.042-1.089.026-.604.036-.776h-.057l-2.385,7.26h-1.805Z"/>
  <path class="cls-1" d="M388.199,89.084h-14.458l-23.333-40.583h-.333c.109,1.698.198,3.396.271,5.104.068,1.708.135,3.417.208,5.125.083,1.698.156,3.396.229,5.104v25.25h-10.167v-53.646h14.354l23.292,40.188h.25c-.042-1.667-.104-3.318-.188-4.958-.073-1.635-.135-3.276-.188-4.917-.057-1.635-.115-3.276-.167-4.917v-25.396h10.229v53.646h0Z"/>
  <path class="cls-1" d="M416.62,47.292c3.792,0,7.052.729,9.792,2.188,2.734,1.458,4.844,3.573,6.333,6.333,1.5,2.766,2.25,6.141,2.25,10.125v5.417h-26.458c.125,3.167,1.068,5.646,2.833,7.438,1.776,1.792,4.25,2.688,7.417,2.688,2.609,0,5.005-.26,7.188-.792,2.177-.542,4.417-1.354,6.708-2.438v8.667c-2.031,1-4.156,1.729-6.375,2.188-2.208.469-4.891.708-8.042.708-4.115,0-7.75-.755-10.917-2.271-3.167-1.51-5.656-3.823-7.458-6.938-1.792-3.109-2.688-7.021-2.688-11.729,0-4.802.813-8.797,2.438-11.979,1.625-3.193,3.885-5.589,6.792-7.188,2.917-1.609,6.313-2.417,10.188-2.417h0ZM416.683,55.251c-2.182,0-3.99.703-5.417,2.104-1.432,1.391-2.25,3.578-2.458,6.563h15.688c-.016-1.667-.313-3.146-.896-4.438-.573-1.302-1.427-2.333-2.563-3.083-1.141-.76-2.594-1.146-4.354-1.146Z"/>
  <path class="cls-1" d="M476.68,89.084l-3.146-14.354c-.167-.844-.453-2.109-.854-3.792-.391-1.677-.813-3.479-1.271-5.396-.448-1.917-.865-3.693-1.25-5.333-.375-1.635-.646-2.839-.813-3.604h-.333c-.167.766-.438,1.969-.813,3.604-.365,1.641-.771,3.427-1.229,5.354-.448,1.932-.865,3.75-1.25,5.458-.391,1.698-.688,2.979-.896,3.854l-3.292,14.208h-12.042l-11.667-41.021h11.167l4.729,18.167c.318,1.266.625,2.771.917,4.521s.547,3.438.771,5.063c.234,1.625.417,2.917.542,3.875h.292c.052-.708.156-1.646.313-2.813.167-1.177.354-2.396.563-3.646.208-1.26.401-2.401.583-3.417.177-1.026.318-1.719.417-2.083l5.063-19.667h12.333l4.813,19.667c.167.708.385,1.833.667,3.375.292,1.542.542,3.125.75,4.75.219,1.625.344,2.906.375,3.833h.292c.094-.833.26-2.068.5-3.708.25-1.635.542-3.354.875-5.146.333-1.802.672-3.339,1.021-4.604l4.917-18.167h10.958l-11.813,41.021h-12.189,0Z"/>
  <path class="cls-1" d="M574.118,62.188c0,4.141-.516,7.906-1.542,11.292-1.031,3.391-2.594,6.307-4.688,8.75-2.083,2.448-4.729,4.323-7.938,5.625-3.198,1.302-6.99,1.958-11.375,1.958s-8.167-.656-11.375-1.958c-3.198-1.302-5.844-3.177-7.938-5.625-2.083-2.443-3.641-5.365-4.667-8.771-1.031-3.401-1.542-7.188-1.542-11.354,0-5.542.906-10.375,2.729-14.5,1.818-4.125,4.625-7.318,8.417-9.583,3.792-2.276,8.609-3.417,14.458-3.417,5.818,0,10.604,1.141,14.354,3.417,3.76,2.266,6.552,5.469,8.375,9.604,1.818,4.125,2.729,8.979,2.729,14.563h.003,0ZM534.972,62.188c0,3.74.469,6.958,1.417,9.667.943,2.708,2.417,4.792,4.417,6.25,2,1.448,4.589,2.167,7.771,2.167,3.234,0,5.854-.719,7.854-2.167,2.01-1.458,3.479-3.542,4.396-6.25s1.375-5.927,1.375-9.667c0-5.625-1.057-10.047-3.167-13.271-2.099-3.234-5.557-4.854-10.375-4.854-3.208,0-5.823.729-7.833,2.188-2.016,1.458-3.495,3.542-4.438,6.25-.948,2.698-1.417,5.927-1.417,9.688h0Z"/>
  <path class="cls-1" d="M606.13,47.292c.552,0,1.208.036,1.958.104.75.057,1.354.135,1.813.229l-.833,10.5c-.375-.125-.906-.214-1.583-.271-.667-.068-1.245-.104-1.729-.104-1.448,0-2.849.188-4.208.563-1.349.365-2.563.953-3.646,1.771-1.073.823-1.917,1.896-2.542,3.229-.625,1.333-.938,2.969-.938,4.896v20.875h-11.188v-41.021h8.479l1.646,6.896h.542c.802-1.385,1.813-2.667,3.021-3.833,1.219-1.167,2.604-2.094,4.146-2.792,1.552-.693,3.24-1.042,5.063-1.042h0Z"/>
  <path class="cls-1" d="M627.416,89.084h-11.188v-57.083h11.188v57.083Z"/>
  <path class="cls-1" d="M654.95,47.292c3.792,0,7.052.729,9.792,2.188,2.734,1.458,4.844,3.573,6.333,6.333,1.5,2.766,2.25,6.141,2.25,10.125v5.417h-26.458c.125,3.167,1.068,5.646,2.833,7.438,1.776,1.792,4.25,2.688,7.417,2.688,2.609,0,5.005-.26,7.188-.792,2.177-.542,4.417-1.354,6.708-2.438v8.667c-2.031,1-4.156,1.729-6.375,2.188-2.208.469-4.891.708-8.042.708-4.115,0-7.75-.755-10.917-2.271-3.167-1.51-5.656-3.823-7.458-6.938-1.792-3.109-2.688-7.021-2.688-11.729,0-4.802.813-8.797,2.438-11.979,1.625-3.193,3.885-5.589,6.792-7.188,2.917-1.609,6.313-2.417,10.188-2.417h0ZM655.012,55.251c-2.182,0-3.99.703-5.417,2.104-1.432,1.391-2.25,3.578-2.458,6.563h15.688c-.016-1.667-.313-3.146-.896-4.438-.573-1.302-1.427-2.333-2.563-3.083-1.141-.76-2.594-1.146-4.354-1.146Z"/>
  <path class="cls-1" d="M698.093,47.209c5.51,0,9.734,1.203,12.667,3.604,2.927,2.406,4.396,6.052,4.396,10.938v27.333h-7.813l-2.167-5.583h-.292c-1.167,1.474-2.365,2.677-3.583,3.604-1.224.932-2.635,1.615-4.229,2.042-1.583.443-3.516.667-5.792.667-2.432,0-4.604-.469-6.521-1.396s-3.432-2.354-4.542-4.271c-1.099-1.917-1.646-4.354-1.646-7.313,0-4.359,1.526-7.568,4.583-9.625,3.068-2.068,7.656-3.214,13.771-3.438l7.125-.229v-1.792c0-2.151-.563-3.729-1.688-4.729-1.125-1.01-2.698-1.521-4.708-1.521-1.974,0-3.917.286-5.833.854-1.906.557-3.807,1.266-5.708,2.125l-3.708-7.563c2.167-1.135,4.604-2.042,7.313-2.708s5.5-1,8.375-1h0ZM704.051,70.084l-4.333.146c-3.625.099-6.141.745-7.542,1.938-1.406,1.198-2.104,2.771-2.104,4.729,0,1.724.5,2.948,1.5,3.667,1,.708,2.302,1.063,3.917,1.063,2.401,0,4.427-.708,6.083-2.125,1.651-1.417,2.479-3.427,2.479-6.042v-3.375h0Z"/>
  <path class="cls-1" d="M748.852,47.292c4.375,0,7.896,1.198,10.563,3.583,2.667,2.375,4,6.198,4,11.458v26.75h-11.188v-23.958c0-2.927-.536-5.135-1.604-6.625-1.057-1.5-2.724-2.25-5-2.25-3.417,0-5.75,1.161-7,3.479-1.25,2.323-1.875,5.677-1.875,10.063v19.292h-11.188v-41.021h8.542l1.5,5.25h.625c.885-1.417,1.984-2.563,3.292-3.438,1.302-.885,2.755-1.542,4.354-1.958,1.609-.417,3.271-.625,4.979-.625Z"/>
  <path class="cls-1" d="M802.444,76.897c0,2.792-.661,5.156-1.979,7.083-1.307,1.917-3.26,3.37-5.854,4.354-2.583.984-5.813,1.479-9.688,1.479-2.865,0-5.313-.188-7.354-.563-2.042-.359-4.099-.964-6.167-1.813v-9.25c2.219,1,4.609,1.828,7.167,2.479,2.552.641,4.797.958,6.729.958,2.177,0,3.734-.318,4.667-.958.943-.651,1.417-1.505,1.417-2.563,0-.677-.188-1.292-.563-1.833-.375-.552-1.188-1.177-2.438-1.875-1.25-.708-3.208-1.625-5.875-2.75-2.573-1.068-4.682-2.151-6.333-3.25-1.641-1.109-2.865-2.417-3.667-3.917-.792-1.5-1.188-3.417-1.188-5.75,0-3.792,1.469-6.646,4.417-8.563,2.943-1.917,6.885-2.875,11.833-2.875,2.542,0,4.964.26,7.271.771,2.318.516,4.698,1.333,7.146,2.458l-3.375,8.063c-2.031-.875-3.948-1.589-5.75-2.146-1.792-.568-3.62-.854-5.479-.854-1.641,0-2.875.224-3.708.667-.823.432-1.229,1.104-1.229,2.021,0,.656.208,1.24.625,1.75.427.516,1.26,1.083,2.5,1.708,1.234.625,3.052,1.427,5.458,2.396,2.318.958,4.333,1.958,6.042,3,1.719,1.042,3.047,2.328,3.979,3.854.927,1.531,1.396,3.5,1.396,5.917v.002h0Z"/>
  <path class="cls-1" d="M362.533,143.405c0,2.406-.583,4.474-1.75,6.208-1.167,1.74-2.849,3.073-5.042,4-2.182.917-4.786,1.375-7.813,1.375-1.474,0-2.885-.083-4.229-.25-1.349-.167-2.62-.406-3.813-.729-1.198-.333-2.281-.729-3.25-1.188v-6.25c1.635.708,3.469,1.354,5.5,1.938,2.026.583,4.094.875,6.208.875,1.708,0,3.13-.219,4.271-.667,1.135-.458,1.984-1.104,2.542-1.938.552-.844.833-1.833.833-2.958,0-1.193-.328-2.208-.979-3.042-.641-.833-1.615-1.589-2.917-2.271-1.307-.693-2.938-1.443-4.896-2.25-1.323-.526-2.583-1.13-3.792-1.813-1.208-.677-2.286-1.479-3.229-2.396-.948-.927-1.688-2.026-2.229-3.292-.542-1.26-.813-2.755-.813-4.479,0-2.292.547-4.24,1.646-5.854,1.094-1.625,2.646-2.865,4.646-3.729,2-.875,4.339-1.313,7.021-1.313,2.125,0,4.115.224,5.979.667,1.875.432,3.719,1.057,5.542,1.875l-2.104,5.333c-1.667-.677-3.286-1.219-4.854-1.625-1.557-.401-3.141-.604-4.75-.604-1.406,0-2.599.219-3.583.646-.974.417-1.719,1.01-2.229,1.771-.5.766-.75,1.677-.75,2.729,0,1.182.281,2.177.854,2.979.583.792,1.484,1.521,2.708,2.188,1.234.667,2.823,1.411,4.771,2.229,2.219.917,4.109,1.885,5.667,2.896,1.568,1.016,2.76,2.229,3.583,3.646.833,1.406,1.25,3.167,1.25,5.292h0Z"/>
  <path class="cls-1" d="M381.884,123.196c2.734,0,5.073.563,7.021,1.688,1.958,1.125,3.464,2.724,4.521,4.792,1.052,2.073,1.583,4.542,1.583,7.417v3.5h-20.458c.068,2.974.865,5.266,2.396,6.875,1.526,1.599,3.667,2.396,6.417,2.396,1.943,0,3.693-.188,5.25-.563,1.568-.385,3.177-.948,4.833-1.688v5.292c-1.531.724-3.083,1.25-4.667,1.583s-3.49.5-5.708.5c-3,0-5.641-.583-7.917-1.75-2.281-1.177-4.063-2.927-5.354-5.25-1.281-2.333-1.917-5.219-1.917-8.667s.573-6.359,1.729-8.75c1.167-2.401,2.797-4.229,4.896-5.479,2.109-1.26,4.568-1.896,7.375-1.896h0ZM381.884,128.092c-2.042,0-3.698.667-4.958,2-1.266,1.333-2.01,3.281-2.229,5.833h13.938c-.016-1.526-.266-2.88-.75-4.063-.49-1.177-1.229-2.104-2.229-2.771-.99-.667-2.245-1-3.771-1h0Z"/>
  <path class="cls-1" d="M414.688,154.988c-2.906,0-5.417-.563-7.542-1.688-2.115-1.135-3.745-2.865-4.896-5.188-1.141-2.318-1.708-5.271-1.708-8.854,0-3.719.625-6.76,1.875-9.125,1.26-2.375,3.005-4.125,5.229-5.25,2.219-1.125,4.771-1.688,7.646-1.688,1.833,0,3.484.182,4.958.542,1.484.365,2.75.802,3.792,1.313l-1.938,5.208c-1.125-.458-2.281-.839-3.458-1.146-1.182-.318-2.323-.479-3.417-.479-1.792,0-3.286.396-4.479,1.188-1.182.792-2.063,1.974-2.646,3.542-.583,1.573-.875,3.516-.875,5.833,0,2.25.292,4.146.875,5.688.594,1.542,1.479,2.708,2.646,3.5,1.167.781,2.594,1.167,4.292,1.167,1.677,0,3.177-.198,4.5-.604,1.333-.401,2.589-.927,3.771-1.583v5.646c-1.156.667-2.396,1.161-3.729,1.479-1.333.333-2.969.5-4.896.5h0Z"/>
  <path class="cls-1" d="M441.897,149.717c.844,0,1.677-.073,2.5-.229.833-.151,1.589-.339,2.271-.563v4.917c-.708.323-1.641.589-2.792.813-1.141.219-2.328.333-3.563.333-1.74,0-3.302-.292-4.688-.875-1.375-.583-2.474-1.583-3.292-3-.807-1.427-1.208-3.396-1.208-5.896v-16.479h-4.188v-2.896l4.479-2.313,2.146-6.563h4.083v6.813h8.771v4.958h-8.771v16.396c0,1.542.385,2.698,1.167,3.458.776.75,1.802,1.125,3.083,1.125h.002,0Z"/>
  <path class="cls-1" d="M459.398,123.78v30.646h-6.5v-30.646h6.5ZM456.19,112.05c1,0,1.859.271,2.583.813.734.531,1.104,1.448,1.104,2.75,0,1.292-.37,2.219-1.104,2.771-.724.542-1.583.813-2.583.813-1.031,0-1.896-.271-2.604-.813-.708-.552-1.063-1.479-1.063-2.771,0-1.302.354-2.219,1.063-2.75.708-.542,1.573-.813,2.604-.813Z"/>
  <path class="cls-1" d="M495.826,139.03c0,2.557-.333,4.823-1,6.792-.656,1.974-1.62,3.641-2.896,5-1.281,1.349-2.813,2.385-4.604,3.104-1.792.708-3.813,1.063-6.063,1.063-2.099,0-4.031-.354-5.792-1.063-1.75-.719-3.266-1.755-4.542-3.104-1.281-1.359-2.271-3.026-2.979-5-.698-1.969-1.042-4.234-1.042-6.792,0-3.375.583-6.234,1.75-8.583,1.177-2.359,2.854-4.156,5.021-5.396,2.177-1.234,4.776-1.854,7.792-1.854,2.818,0,5.302.62,7.458,1.854,2.167,1.24,3.854,3.036,5.063,5.396,1.219,2.365,1.833,5.224,1.833,8.583h0ZM473.597,139.03c0,2.24.271,4.156.813,5.75.552,1.583,1.401,2.792,2.542,3.625,1.151.833,2.63,1.25,4.438,1.25s3.276-.417,4.417-1.25c1.151-.833,1.99-2.042,2.521-3.625.542-1.594.813-3.51.813-5.75,0-2.219-.271-4.109-.813-5.667-.531-1.568-1.37-2.76-2.521-3.583-1.141-.818-2.625-1.229-4.458-1.229-2.698,0-4.661.906-5.896,2.708-1.24,1.807-1.854,4.396-1.854,7.771h-.002,0Z"/>
  <path class="cls-1" d="M519.275,123.196c3.443,0,6.13.896,8.063,2.688,1.927,1.781,2.896,4.635,2.896,8.563v19.979h-6.5v-18.771c0-2.375-.495-4.156-1.479-5.354-.974-1.193-2.49-1.792-4.542-1.792-2.958,0-5.021.917-6.188,2.75-1.156,1.823-1.729,4.469-1.729,7.938v15.229h-6.5v-30.646h5.063l.917,4.167h.354c.667-1.083,1.49-1.964,2.479-2.646.984-.693,2.089-1.214,3.313-1.563,1.234-.359,2.521-.542,3.854-.542h0Z"/>
</svg>